<svg xmlns="http://www.w3.org/2000/svg" viewBox="0 0 64 64" fill="none">
  <defs>
    <linearGradient id="cardGradient" x1="16" y1="10" x2="54" y2="56" gradientUnits="userSpaceOnUse">
      <stop stop-color="#0F172A" />
      <stop offset="0.55" stop-color="#334155" />
      <stop offset="1" stop-color="#F59E0B" />
    </linearGradient>
    <linearGradient id="backGradient" x1="8" y1="14" x2="36" y2="50" gradientUnits="userSpaceOnUse">
      <stop stop-color="#E2E8F0" />
      <stop offset="1" stop-color="#CBD5E1" />
    </linearGradient>
  </defs>
  <rect x="10" y="15" width="34" height="40" rx="11" fill="url(#backGradient)" transform="rotate(-8 10 15)" />
  <rect x="18" y="8" width="36" height="48" rx="13" fill="url(#cardGradient)" />
  <rect x="20" y="10" width="32" height="44" rx="11" stroke="#FFFFFF" stroke-opacity="0.16" />
  <path d="M38 18V37C38 44.18 34.18 48 27 48C22.8 48 19.46 46.55 16.77 43.68L21.67 38.9C23.25 40.58 25 41.42 27.12 41.42C30.41 41.42 32 39.54 32 35.78V18H38Z" fill="#FFF7ED" />
  <path d="M27 48C22.8 48 19.46 46.55 16.77 43.68L21.67 38.9C23.25 40.58 25 41.42 27.12 41.42" stroke="#FFFFFF" stroke-opacity="0.18" stroke-linecap="round" />
</svg>
